<?xml version="1.0" encoding="UTF-8"?> <svg xmlns="http://www.w3.org/2000/svg" width="58.025" height="70.749" viewBox="0 0 58.025 70.749"><path id="Path_18" data-name="Path 18" d="M366.167,639.718a3.991,3.991,0,0,0,1.416-3.708,4.767,4.767,0,0,0-.812-2.273,4.631,4.631,0,0,0,.519-2.708,4.378,4.378,0,0,0-1.442-2.959,4.674,4.674,0,0,0,.466-2.609A3.987,3.987,0,0,0,364.2,622.1c.037-.115.076-.232.115-.353a4.626,4.626,0,0,0,.529-2.727c-.2-2.1-1.613-3.681-3.145-3.531-.037,0-.072.012-.109.018l-.079-.115c-.031-.324-.07-.657-.13-1.008-.4-2.375-1.666-4.221-3.2-4.071-.93.091-3.01,2.43-4.453,4.792a13.864,13.864,0,0,0-2.173,5.85c-.44,3.037-3.036,10.834-7.333,11.421-18.948,1.465-11.785-21.845-26.651-22.458,1.26-.573,2.414-1.65,1.758-2.541a1.908,1.908,0,0,0-3.149.048c-.461.81-.6.465-.6.465s-.025-.6-.786-.56-1.205.513-1.228.928a1.324,1.324,0,0,1-.741,1.041c-.39.2-2.885,2.57-.562,3.542-.943.338-2.423,1.049-2.686,2.26h3.172c-3.837,4.271,3.05,7.649,1.576,1.7,4.222,3.013-.887,2.012-2,16.056l0,0c-1.166,14.774,1.49,26.061,22.263,33.525-.178,1.916.515,3.585,1.764,4.1l-.607,5.3c-.021.168-.567.32-.735.336l-4.852.47a1.274,1.274,0,0,0-.553.217l-.368.283c-.133.1-.106.194.064.2l10.291.008a.069.069,0,0,0,.012,0l3.023,0c.17-.005.2-.1.073-.211l-.486-.412a1.23,1.23,0,0,0-.543-.24l-1.069-.142a.292.292,0,0,1-.251-.344l.822-5.524a5.24,5.24,0,0,0,2.655-3.561c.048-.184.085-.368.117-.55a22.971,22.971,0,0,0,6.609-2.944c6.125-4.206,9.052-10.627,11.873-16.606a5.593,5.593,0,0,0,4.414-2.932C367.484,642.158,367.169,640.447,366.167,639.718Zm-28.845,36.226.823-5.524a3.346,3.346,0,0,0,.61-.346,2.24,2.24,0,0,0,.638.4l-.607,5.3c-.021.168-.567.32-.734.336l-.668.065A.292.292,0,0,1,337.322,675.944Z" transform="translate(-309.581 -606.544)" fill="#fff"></path></svg> 