<?xml version="1.0" encoding="UTF-8"?> <svg xmlns="http://www.w3.org/2000/svg" width="94.748" height="70.168" viewBox="0 0 94.748 70.168"><g id="_2_EGGS" data-name="2 EGGS" transform="translate(0 0)"><path id="egg" d="M199.492,725.632c-6.1-6.357-9.318-15.522-9.318-26.505a54.683,54.683,0,0,1,6.832-26.26c-13.447-7.652-29.221-8.318-36.843-.7-9.712,9.711-5.835,32.525,8.669,47.029,11.091,11.091,22.949,12.956,32.736,8.392Q200.487,726.665,199.492,725.632ZM169.9,675.537a12,12,0,0,0-2.3,1.022,8.543,8.543,0,0,0-1.731,1.316c-2.324,2.325-3.46,6.618-3.116,11.778a2.06,2.06,0,0,1-1.919,2.193c-.047,0-.094.005-.14.005a2.062,2.062,0,0,1-2.055-1.924c-.43-6.439,1.1-11.754,4.315-14.966A12.7,12.7,0,0,1,165.518,673a16.1,16.1,0,0,1,3.089-1.377,2.061,2.061,0,1,1,1.292,3.914Z" transform="translate(-154.814 -659.741)" fill="#fff"></path><path id="egg-2" data-name="egg" d="M219.918,730.35c15.244,0,27.124-10.285,27.124-30.783s-13.578-39.386-27.313-39.386-27.124,18.874-27.124,39.386S204.673,730.35,219.918,730.35Zm-15.639-55.461c4.2-6.04,9.492-9.743,14.518-10.162.058,0,.116-.007.174-.007a2.063,2.063,0,0,1,.167,4.12c-3.739.31-8.028,3.453-11.472,8.4a38.484,38.484,0,0,0-5.807,13.494,2.062,2.062,0,1,1-4.026-.9A42.646,42.646,0,0,1,204.278,674.889Z" transform="translate(-152.292 -660.181)" fill="#fff"></path></g></svg> 