<?xml version="1.0" encoding="UTF-8"?> <svg xmlns="http://www.w3.org/2000/svg" id="Group_157" data-name="Group 157" width="40.381" height="32.28" viewBox="0 0 40.381 32.28"><g id="Group_155" data-name="Group 155" transform="translate(0 0)"><g id="Group_154" data-name="Group 154"><path id="Path_323" data-name="Path 323" d="M43.609,169.171a6.225,6.225,0,0,1-.3,2.086,3.133,3.133,0,0,1-.872,1.335,3.364,3.364,0,0,1-1.384.711,7.228,7.228,0,0,1-1.83.213A4.532,4.532,0,0,1,36,172.489a4.035,4.035,0,0,1-1.085-3.066v-2.482h2.053v2.4a2.4,2.4,0,0,0,.544,1.691,2.325,2.325,0,0,0,1.772.583,2.52,2.52,0,0,0,1.71-.5,2.142,2.142,0,0,0,.558-1.667V158.219h2.055Z" transform="translate(-34.918 -158.219)" fill="#1a1818"></path><path id="Path_324" data-name="Path 324" d="M52.589,169.5a2.789,2.789,0,0,1-.9-.15,1.333,1.333,0,0,1-.728-.657,1.586,1.586,0,0,1-.45.435,1.951,1.951,0,0,1-.562.245,3.369,3.369,0,0,1-.624.1q-.323.024-.655.024H42.412v-1.817h2.844v-5.578h2.056v5.578h1.027a1.264,1.264,0,0,0,.75-.166c.143-.11.213-.361.213-.75v-8.55h2.055v8.376a1.2,1.2,0,0,0,.238.838,1.4,1.4,0,0,0,.994.252,1.113,1.113,0,0,1,.237.024.406.406,0,0,1,.2.111.6.6,0,0,1,.135.26,1.907,1.907,0,0,1,.047.474,1.321,1.321,0,0,1-.151.744A.543.543,0,0,1,52.589,169.5Z" transform="translate(-32.316 -158.219)" fill="#1a1818"></path><path id="Path_325" data-name="Path 325" d="M50.126,167.062a1.1,1.1,0,0,1-.237-.024.376.376,0,0,1-.2-.11.57.57,0,0,1-.135-.26,1.848,1.848,0,0,1-.047-.476,1.324,1.324,0,0,1,.15-.741.538.538,0,0,1,.466-.206h2.339a1.106,1.106,0,0,1,.237.024.391.391,0,0,1,.2.11.569.569,0,0,1,.135.26,1.906,1.906,0,0,1,.047.474,1.335,1.335,0,0,1-.15.744.541.541,0,0,1-.466.2Z" transform="translate(-29.851 -155.779)" fill="#1a1818"></path><path id="Path_326" data-name="Path 326" d="M51.861,167.062a1.113,1.113,0,0,1-.237-.024.387.387,0,0,1-.2-.11.583.583,0,0,1-.135-.26,1.91,1.91,0,0,1-.047-.476,1.324,1.324,0,0,1,.15-.741.54.54,0,0,1,.466-.206H54.2a1.1,1.1,0,0,1,.237.024.4.4,0,0,1,.2.11.569.569,0,0,1,.133.26,1.834,1.834,0,0,1,.048.474,1.333,1.333,0,0,1-.151.744.539.539,0,0,1-.466.2Z" transform="translate(-29.248 -155.779)" fill="#1a1818"></path><path id="Path_327" data-name="Path 327" d="M53.6,167.062a1.092,1.092,0,0,1-.236-.024.385.385,0,0,1-.2-.11.569.569,0,0,1-.133-.26,1.838,1.838,0,0,1-.049-.476,1.322,1.322,0,0,1,.151-.741.536.536,0,0,1,.465-.206h2.34a1.115,1.115,0,0,1,.237.024.4.4,0,0,1,.2.11.582.582,0,0,1,.135.26,1.906,1.906,0,0,1,.047.474,1.335,1.335,0,0,1-.15.744.543.543,0,0,1-.466.2Z" transform="translate(-28.645 -155.779)" fill="#1a1818"></path><path id="Path_328" data-name="Path 328" d="M60.99,166.487a5.486,5.486,0,0,0-.2-1.161,2.486,2.486,0,0,0-.484-.909,2.183,2.183,0,0,0-.829-.591,3.256,3.256,0,0,0-1.264-.214,7.012,7.012,0,0,0-.8.071,7.546,7.546,0,0,0-1.1.229v-1.832a9.427,9.427,0,0,1,.988-.268,5.736,5.736,0,0,1,1.288-.143,4.587,4.587,0,0,1,2.079.427,3.748,3.748,0,0,1,1.366,1.137,4.588,4.588,0,0,1,.75,1.652,8.236,8.236,0,0,1,.229,1.951v1.47H55.333a1.106,1.106,0,0,1-.237-.024.381.381,0,0,1-.2-.11.569.569,0,0,1-.135-.26,1.91,1.91,0,0,1-.047-.476,1.324,1.324,0,0,1,.15-.741.538.538,0,0,1,.466-.206Z" transform="translate(-28.043 -157.021)" fill="#1a1818"></path></g></g><g id="Group_156" data-name="Group 156" transform="translate(0.632 20.16)"><path id="Path_329" data-name="Path 329" d="M39.976,184.756v-4.178H38.538v4.178a.485.485,0,0,1-.55.547H35.935a.484.484,0,0,1-.548-.547V173.73a.484.484,0,0,1,.548-.547h2.053a.484.484,0,0,1,.55.547V177.7h1.438V173.73a.483.483,0,0,1,.547-.547h2.055a.484.484,0,0,1,.548.547v11.026a.485.485,0,0,1-.548.547H40.523A.484.484,0,0,1,39.976,184.756Z" transform="translate(-35.387 -173.183)" fill="#1a1818"></path><path id="Path_330" data-name="Path 330" d="M44.377,173.183h3.252a.706.706,0,0,1,.788.6l1.834,10.925a.521.521,0,0,1-.078.434.481.481,0,0,1-.4.16h-2.1a.544.544,0,0,1-.579-.531l-.222-1.489H45.134l-.222,1.489a.545.545,0,0,1-.579.531h-2.1a.477.477,0,0,1-.4-.163.519.519,0,0,1-.077-.435l1.832-10.926A.7.7,0,0,1,44.377,173.183Zm.966,7.36,1.336,0-.626-4.317H45.97Z" transform="translate(-33.18 -173.183)" fill="#1a1818"></path><path id="Path_331" data-name="Path 331" d="M51.854,173.73v8.663h2.191a.483.483,0,0,1,.547.547v1.816a.484.484,0,0,1-.547.547H49.251a.485.485,0,0,1-.548-.547V173.73a.484.484,0,0,1,.548-.547h2.055A.484.484,0,0,1,51.854,173.73Z" transform="translate(-30.763 -173.183)" fill="#1a1818"></path><path id="Path_332" data-name="Path 332" d="M56.195,173.183h3.252a.707.707,0,0,1,.788.6l1.832,10.925a.516.516,0,0,1-.078.434.48.48,0,0,1-.4.16h-2.1a.545.545,0,0,1-.579-.531l-.222-1.489H56.95l-.222,1.489a.545.545,0,0,1-.579.531h-2.1a.478.478,0,0,1-.4-.163.519.519,0,0,1-.077-.435l1.834-10.926A.7.7,0,0,1,56.195,173.183Zm.965,7.36,1.338,0-.626-4.317h-.085Z" transform="translate(-29.077 -173.183)" fill="#1a1818"></path><path id="Path_333" data-name="Path 333" d="M63.67,173.73v8.663h2.191a.484.484,0,0,1,.548.547v1.816a.484.484,0,0,1-.548.547H61.068a.484.484,0,0,1-.548-.547V173.73a.484.484,0,0,1,.548-.547h2.053A.484.484,0,0,1,63.67,173.73Z" transform="translate(-26.659 -173.183)" fill="#1a1818"></path></g></svg> 