<?xml version="1.0" encoding="UTF-8"?> <svg xmlns="http://www.w3.org/2000/svg" id="Group_153" data-name="Group 153" width="86.556" height="32.188" viewBox="0 0 86.556 32.188"><g id="Group_150" data-name="Group 150" transform="translate(0 0)"><g id="Group_145" data-name="Group 145" transform="translate(0 0)"><g id="Group_124" data-name="Group 124" transform="translate(7.312 14.654)"><path id="Path_282" data-name="Path 282" d="M49.913,88.778c.647,0,1.174-.38,1.174-.846s-.526-.846-1.174-.846-1.174.38-1.174.846S49.265,88.778,49.913,88.778Z" transform="translate(-48.739 -87.085)" fill="#1a1818"></path></g><g id="Group_125" data-name="Group 125" transform="translate(7.412 12.559)"><path id="Path_283" data-name="Path 283" d="M50.01,85.567c.616,0,1.117-.377,1.117-.84s-.5-.841-1.117-.841-1.118.378-1.118.841S49.393,85.567,50.01,85.567Z" transform="translate(-48.892 -83.885)" fill="#1a1818"></path></g><g id="Group_126" data-name="Group 126" transform="translate(7.255 10.433)"><path id="Path_284" data-name="Path 284" d="M49.714,82c.585,0,1.061-.307,1.061-.684s-.476-.683-1.061-.683-1.062.306-1.062.683S49.129,82,49.714,82Z" transform="translate(-48.652 -80.637)" fill="#1a1818"></path></g><g id="Group_127" data-name="Group 127" transform="translate(7.312 8.008)"><path id="Path_285" data-name="Path 285" d="M49.744,78.326c.554,0,1-.313,1-.7s-.451-.7-1-.7-1,.313-1,.7S49.189,78.326,49.744,78.326Z" transform="translate(-48.739 -76.932)" fill="#1a1818"></path></g><g id="Group_128" data-name="Group 128" transform="translate(7.368 5.595)"><path id="Path_286" data-name="Path 286" d="M49.773,74.628c.523,0,.948-.31.948-.691s-.425-.691-.948-.691-.948.31-.948.691S49.25,74.628,49.773,74.628Z" transform="translate(-48.825 -73.246)" fill="#1a1818"></path></g><g id="Group_129" data-name="Group 129" transform="translate(6.105 16.807)"><path id="Path_287" data-name="Path 287" d="M48,90.378a1,1,0,0,0-1.1.858.882.882,0,0,0,.228.669,1.044,1.044,0,0,0,.708.339c.028,0,.055,0,.082,0a.992.992,0,0,0,1.017-.861.882.882,0,0,0-.229-.669A1.042,1.042,0,0,0,48,90.378Z" transform="translate(-46.895 -90.375)" fill="#1a1818"></path></g><g id="Group_130" data-name="Group 130" transform="translate(4.789 14.229)"><path id="Path_288" data-name="Path 288" d="M45.915,86.442a.912.912,0,0,0-1.026.757.808.808,0,0,0,.192.618.954.954,0,0,0,.638.327c.026,0,.05,0,.075.005a.906.906,0,0,0,.951-.762.806.806,0,0,0-.192-.618A.954.954,0,0,0,45.915,86.442Z" transform="translate(-44.884 -86.437)" fill="#1a1818"></path></g><g id="Group_131" data-name="Group 131" transform="translate(5.21 11.743)"><path id="Path_289" data-name="Path 289" d="M46.51,82.643a.873.873,0,0,0-.977.722.767.767,0,0,0,.183.588.906.906,0,0,0,.608.312c.024,0,.048,0,.071,0a.863.863,0,0,0,.906-.726.765.765,0,0,0-.183-.588A.91.91,0,0,0,46.51,82.643Z" transform="translate(-45.527 -82.638)" fill="#1a1818"></path></g><g id="Group_132" data-name="Group 132" transform="translate(5.369 9.093)"><path id="Path_290" data-name="Path 290" d="M46.425,79.926a.563.563,0,0,0,.058,0,.709.709,0,0,0,.744-.6.63.63,0,0,0-.151-.484.748.748,0,0,0-.5-.256.715.715,0,0,0-.8.592.631.631,0,0,0,.151.483A.747.747,0,0,0,46.425,79.926Z" transform="translate(-45.771 -78.59)" fill="#1a1818"></path></g><g id="Group_133" data-name="Group 133" transform="translate(5.722 6.419)"><path id="Path_291" data-name="Path 291" d="M47.028,75.973l.064,0a.778.778,0,0,0,.817-.655.693.693,0,0,0-.166-.532.818.818,0,0,0-.548-.281.79.79,0,0,0-.882.651.7.7,0,0,0,.166.531A.821.821,0,0,0,47.028,75.973Z" transform="translate(-46.309 -74.505)" fill="#1a1818"></path></g><g id="Group_134" data-name="Group 134" transform="translate(6.368 3.622)"><path id="Path_292" data-name="Path 292" d="M47.975,71.62l.06,0A.737.737,0,0,0,48.808,71a.657.657,0,0,0-.156-.5.775.775,0,0,0-.518-.266.743.743,0,0,0-.833.615.654.654,0,0,0,.156.5A.775.775,0,0,0,47.975,71.62Z" transform="translate(-47.296 -70.232)" fill="#1a1818"></path></g><g id="Group_135" data-name="Group 135" transform="translate(7.368 1.507)"><path id="Path_293" data-name="Path 293" d="M49.523,68.391l.061,0a.737.737,0,0,0,.755-.641.657.657,0,0,0-.171-.5A.776.776,0,0,0,49.643,67a.743.743,0,0,0-.816.638.657.657,0,0,0,.171.5A.772.772,0,0,0,49.523,68.391Z" transform="translate(-48.824 -67.001)" fill="#1a1818"></path></g><g id="Group_136" data-name="Group 136" transform="translate(9.648 11.254)"><path id="Path_294" data-name="Path 294" d="M53.17,83.2a.78.78,0,0,0,.518-.279.593.593,0,0,0,.126-.467.749.749,0,0,0-.854-.56.781.781,0,0,0-.519.279.591.591,0,0,0-.126.466.734.734,0,0,0,.749.566A.97.97,0,0,0,53.17,83.2Z" transform="translate(-52.307 -81.892)" fill="#1a1818"></path></g><g id="Group_137" data-name="Group 137" transform="translate(9.544 8.93)"><path id="Path_295" data-name="Path 295" d="M53,79.636a.77.77,0,0,0,.512-.276.586.586,0,0,0,.124-.461.739.739,0,0,0-.844-.552.769.769,0,0,0-.513.276.587.587,0,0,0-.124.461.725.725,0,0,0,.74.558A.945.945,0,0,0,53,79.636Z" transform="translate(-52.15 -78.34)" fill="#1a1818"></path></g><g id="Group_138" data-name="Group 138" transform="translate(9.252 6.598)"><path id="Path_296" data-name="Path 296" d="M52.342,74.785a.768.768,0,0,0-.508.274.583.583,0,0,0-.124.458.72.72,0,0,0,.734.555.923.923,0,0,0,.1-.007.765.765,0,0,0,.508-.274.582.582,0,0,0,.124-.458A.736.736,0,0,0,52.342,74.785Z" transform="translate(-51.703 -74.779)" fill="#1a1818"></path></g><g id="Group_139" data-name="Group 139" transform="translate(8.509 3.622)"><path id="Path_297" data-name="Path 297" d="M51.38,71.648a.95.95,0,0,0,.113-.007.841.841,0,0,0,.556-.3.64.64,0,0,0,.135-.5.8.8,0,0,0-.916-.6.841.841,0,0,0-.556.3.637.637,0,0,0-.135.5A.786.786,0,0,0,51.38,71.648Z" transform="translate(-50.568 -70.232)" fill="#1a1818"></path></g><g id="Group_143" data-name="Group 143"><g id="Group_140" data-name="Group 140" transform="translate(0.41 11.003)"><path id="Path_298" data-name="Path 298" d="M53.627,81.508c-6.068,4.753-8.321,10.464-8.692,12.456-.218-.3-1.678-7.8-6.739-8.1a10.038,10.038,0,0,1,2.475,4.562,34.774,34.774,0,0,1,.515,3.982,8.823,8.823,0,0,0,1.176,3.8,3.974,3.974,0,0,0,3.32,1.933c5.7.337,5.249-6.268,5.064-8.783A14,14,0,0,1,53.627,81.508Z" transform="translate(-38.195 -81.508)" fill="#1a1818"></path></g><g id="Group_142" data-name="Group 142"><g id="Group_141" data-name="Group 141"><path id="Path_299" data-name="Path 299" d="M45.694,65.7c.722,0,2.5.954,3.455,9.791.1.97.189,1.948.259,2.911.509-.56,1.06-1.119,1.653-1.671a45.314,45.314,0,0,1,2.567-5.57,8.285,8.285,0,0,0-3.717,2.326c-.818-5.908-2.2-8.787-4.217-8.787-2.119,0-3.546,3.493-4.36,10.681-.062.552-.119,1.107-.17,1.659a5.545,5.545,0,0,0-.825-.469,4.427,4.427,0,0,0-2.771-.384,12.586,12.586,0,0,1,2.917,3.837,6.667,6.667,0,0,1,1.369,1.022C42.287,73.415,43.522,65.7,45.694,65.7Z" transform="translate(-37.568 -64.698)" fill="#1a1818"></path></g></g></g><g id="Group_144" data-name="Group 144" transform="translate(6.881 26.655)"><path id="Path_300" data-name="Path 300" d="M50.695,109.213a17.409,17.409,0,0,1-.137-2.335c0-3.364-1.041.153-1.041.153s-1.041-3.518-1.041-.153a17.412,17.412,0,0,1-.137,2.335c-.089.662-.2,1.074-.257,1.355a2.864,2.864,0,0,0,2.87,0C50.894,110.287,50.784,109.875,50.695,109.213Z" transform="translate(-48.081 -105.421)" fill="#1a1818"></path></g></g><g id="Group_149" data-name="Group 149" transform="translate(18.029 13.888)"><g id="Group_146" data-name="Group 146" transform="translate(0 3.533)"><path id="Path_301" data-name="Path 301" d="M67.205,91.682A3.427,3.427,0,0,0,67,91.364c-.1-.113-1.805-.079-1.879.475a2.014,2.014,0,0,0,1.112,1.695c.537.153,1.248-1.4,1.183-1.534A3.47,3.47,0,0,0,67.205,91.682Zm-.382,1.1c-.229.2-.666-.456-.791-.82s.27-.348.636-.375c.217-.016.448.375.479.52A.9.9,0,0,1,66.823,92.783Z" transform="translate(-65.111 -91.312)" fill="#1a1818"></path></g><g id="Group_147" data-name="Group 147" transform="translate(2.466)"><path id="Path_302" data-name="Path 302" d="M71.054,86.441a2.014,2.014,0,0,0-1.985-.412c-.488.271.106,1.871.248,1.921a3.483,3.483,0,0,0,.372.079,3.611,3.611,0,0,0,.372.077C70.211,88.116,71.393,86.884,71.054,86.441Zm-.918,1.274c-.142.164-.582.052-.707-.029a.894.894,0,0,1-.249-.706c.024-.3.794-.149,1.14.021S70.374,87.439,70.135,87.716Z" transform="translate(-68.879 -85.915)" fill="#1a1818"></path></g><g id="Group_148" data-name="Group 148" transform="translate(4.065 3.027)"><path id="Path_303" data-name="Path 303" d="M72.817,90.575c-.489-.268-1.527,1.087-1.494,1.234a3.439,3.439,0,0,0,.132.356,3.487,3.487,0,0,0,.134.356c.071.132,1.743.477,1.937-.046A2.014,2.014,0,0,0,72.817,90.575Zm-.859,1.8c-.215-.033-.354-.465-.352-.614a.9.9,0,0,1,.465-.586c.267-.14.549.592.59.975S72.319,92.43,71.958,92.376Z" transform="translate(-71.322 -90.539)" fill="#1a1818"></path></g></g></g><g id="Group_151" data-name="Group 151" transform="translate(29.679 1.59)"><path id="Path_304" data-name="Path 304" d="M38.085,114.98l-3.155.448V114.8l3.155-.446Zm0,1.118-3.155.435V115.9l3.155-.447Z" transform="translate(-34.93 -114.35)" fill="#1a1818"></path><path id="Path_305" data-name="Path 305" d="M38.736,126.282a1.1,1.1,0,0,1-.124.618.447.447,0,0,1-.388.172h-.553a3.249,3.249,0,0,1-.821-.1,1.6,1.6,0,0,1-.645-.329,1.508,1.508,0,0,1-.42-.612,2.581,2.581,0,0,1-.151-.947v-7.4h1.709v7.167q0,.463.165.586a.759.759,0,0,0,.468.124h.249a.92.92,0,0,1,.2.02.32.32,0,0,1,.165.092.473.473,0,0,1,.111.216A1.534,1.534,0,0,1,38.736,126.282Z" transform="translate(-34.845 -113.946)" fill="#1a1818"></path><path id="Path_306" data-name="Path 306" d="M42.7,126.622a3.1,3.1,0,0,1-.395-.027,1.793,1.793,0,0,1-.408-.1,1.485,1.485,0,0,1-.374-.2,1.08,1.08,0,0,1-.3-.343,1.287,1.287,0,0,1-.381.362,1.748,1.748,0,0,1-.473.2,2.9,2.9,0,0,1-.519.085c-.181.013-.359.02-.534.02H37.988a.92.92,0,0,1-.2-.02.328.328,0,0,1-.165-.092.473.473,0,0,1-.111-.216,1.537,1.537,0,0,1-.039-.4,1.1,1.1,0,0,1,.124-.617.447.447,0,0,1,.388-.172H39.04a1.052,1.052,0,0,0,.625-.138c.118-.092.178-.3.178-.626v-2.958h1.709V124.2a.852.852,0,0,0,.257.7,1.425,1.425,0,0,0,.888.21.927.927,0,0,1,.2.02.322.322,0,0,1,.164.092.485.485,0,0,1,.112.216,1.586,1.586,0,0,1,.039.395,1.1,1.1,0,0,1-.124.618A.449.449,0,0,1,42.7,126.622Zm-4.367,2.209a.934.934,0,1,1,1.592.657.917.917,0,0,1-1.315,0A.893.893,0,0,1,38.329,128.831Zm2.144,0a.948.948,0,1,1,.277.657A.893.893,0,0,1,40.473,128.831Z" transform="translate(-34.621 -113.497)" fill="#1a1818"></path><path id="Path_307" data-name="Path 307" d="M43.7,125.456v-3.721h1.711v5.234H42.186a.921.921,0,0,1-.2-.02.326.326,0,0,1-.164-.092.474.474,0,0,1-.112-.216,1.59,1.59,0,0,1-.039-.4,1.1,1.1,0,0,1,.124-.617.448.448,0,0,1,.388-.172Zm-1.288-6a.934.934,0,1,1,1.591.656.933.933,0,0,1-1.591-.656Zm2.144,0a.933.933,0,1,1,1.591.656.933.933,0,0,1-1.591-.656Z" transform="translate(-34.112 -113.844)" fill="#1a1818"></path><path id="Path_308" data-name="Path 308" d="M49.527,126.282a1.1,1.1,0,0,1-.124.618.447.447,0,0,1-.388.172h-.553a3.249,3.249,0,0,1-.821-.1,1.6,1.6,0,0,1-.645-.329,1.508,1.508,0,0,1-.42-.612,2.581,2.581,0,0,1-.151-.947v-7.4h1.709v7.167q0,.463.165.586a.759.759,0,0,0,.468.124h.249a.92.92,0,0,1,.2.02.32.32,0,0,1,.165.092.473.473,0,0,1,.111.216A1.534,1.534,0,0,1,49.527,126.282Z" transform="translate(-33.536 -113.946)" fill="#1a1818"></path><path id="Path_309" data-name="Path 309" d="M49.58,125.109a1.05,1.05,0,0,0,.625-.138c.119-.092.177-.3.177-.626v-2.958h1.711V124.2a1.052,1.052,0,0,0,.184.7,1.108,1.108,0,0,0,.815.21.919.919,0,0,1,.2.02.321.321,0,0,1,.165.092.474.474,0,0,1,.111.216,1.534,1.534,0,0,1,.039.395,1.1,1.1,0,0,1-.124.618.447.447,0,0,1-.388.172,2.183,2.183,0,0,1-.737-.126,1.118,1.118,0,0,1-.592-.546,1.287,1.287,0,0,1-.381.362,1.748,1.748,0,0,1-.473.2,2.892,2.892,0,0,1-.52.085q-.269.02-.531.02H48.778a.92.92,0,0,1-.2-.02.328.328,0,0,1-.165-.092.473.473,0,0,1-.111-.216,1.538,1.538,0,0,1-.039-.4,1.1,1.1,0,0,1,.124-.617.447.447,0,0,1,.388-.172Zm.723,3.682a.944.944,0,1,1,.276.657A.9.9,0,0,1,50.3,128.792Z" transform="translate(-33.313 -113.497)" fill="#1a1818"></path><path id="Path_310" data-name="Path 310" d="M54.126,125.456v-3.721h1.711v5.234H52.614a.914.914,0,0,1-.2-.02.329.329,0,0,1-.165-.092.473.473,0,0,1-.111-.216,1.537,1.537,0,0,1-.039-.4,1.1,1.1,0,0,1,.124-.617.447.447,0,0,1,.388-.172Zm-.105-6a.934.934,0,0,1,1.868,0,.934.934,0,0,1-1.868,0Z" transform="translate(-32.848 -113.844)" fill="#1a1818"></path><path id="Path_311" data-name="Path 311" d="M61.118,126.431a1.787,1.787,0,0,0,.124.676,1.254,1.254,0,0,0,.422.534,2.207,2.207,0,0,0,.788.349,5.129,5.129,0,0,0,1.23.124,6.907,6.907,0,0,0,1.493-.131,3.206,3.206,0,0,0,.894-.322,1.12,1.12,0,0,0,.441-.416.883.883,0,0,0,.119-.407.379.379,0,0,0-.151-.315,3.826,3.826,0,0,0-.494-.3c-.253-.131-.492-.268-.715-.408a2.721,2.721,0,0,1-.58-.48,2.152,2.152,0,0,1-.388-.612,2.026,2.026,0,0,1-.144-.788,3.062,3.062,0,0,1,.184-1.033,2.941,2.941,0,0,1,.545-.94,2.749,2.749,0,0,1,.914-.684,2.978,2.978,0,0,1,1.289-.263,3.169,3.169,0,0,1,.861.105q.375.106.558.172v1.538a6.225,6.225,0,0,0-.795-.138c-.223-.022-.4-.033-.519-.033a1.6,1.6,0,0,0-.592.1,1.246,1.246,0,0,0-.414.256,1,1,0,0,0-.323.737.63.63,0,0,0,.269.512,3.506,3.506,0,0,0,.665.395,5.63,5.63,0,0,1,.776.435,2.351,2.351,0,0,1,.48.426,1.309,1.309,0,0,1,.25.461,1.815,1.815,0,0,1,.072.519,3.123,3.123,0,0,1-.223,1.131,2.616,2.616,0,0,1-.77,1.046,4.23,4.23,0,0,1-1.446.762,7.356,7.356,0,0,1-2.255.295,7.111,7.111,0,0,1-2.012-.243,3.553,3.553,0,0,1-1.322-.676,2.441,2.441,0,0,1-.723-1.019,3.667,3.667,0,0,1-.218-1.283v-2.118h1.71Z" transform="translate(-31.962 -113.542)" fill="#1a1818"></path><path id="Path_312" data-name="Path 312" d="M74.121,126.969a4.676,4.676,0,0,1-.651-.039,2.11,2.11,0,0,1-.466-.119,1.7,1.7,0,0,1-.368-.2,4.081,4.081,0,0,1-.354-.3,1.646,1.646,0,0,1-.823.546,3.844,3.844,0,0,1-.953.112H68.217v-1.513h2.6a.869.869,0,0,0,.468-.1.277.277,0,0,0,.151-.23.727.727,0,0,0-.126-.355q-.124-.21-.468-.7l-1.2-1.776,1.566-1,1.578,2.671q.249.42.434.71a3.707,3.707,0,0,0,.335.461,1.139,1.139,0,0,0,.283.243.563.563,0,0,0,.276.072.919.919,0,0,1,.2.02.32.32,0,0,1,.165.092.473.473,0,0,1,.111.216,1.534,1.534,0,0,1,.039.395,1.1,1.1,0,0,1-.124.618A.447.447,0,0,1,74.121,126.969Zm-4.813-7.509a.948.948,0,1,1,.277.656A.9.9,0,0,1,69.308,119.46Z" transform="translate(-30.894 -113.844)" fill="#1a1818"></path><path id="Path_313" data-name="Path 313" d="M74.446,125.456q.262,0,.579-.013a3.7,3.7,0,0,0,.579-.065L74.288,123.8a2.926,2.926,0,0,1,.112-.362c.048-.127.1-.249.151-.368a2.471,2.471,0,0,1,.17-.322,2.346,2.346,0,0,1,.17-.238,3.082,3.082,0,0,1,1.02-.69,3.256,3.256,0,0,1,1.3-.257,3.155,3.155,0,0,1,1.052.158,2.275,2.275,0,0,1,.742.414,1.652,1.652,0,0,1,.586,1.256,2.24,2.24,0,0,1-.308,1.026,3.306,3.306,0,0,1-.9,1.039h2.117a.912.912,0,0,1,.2.02.32.32,0,0,1,.165.092.473.473,0,0,1,.111.216,1.526,1.526,0,0,1,.04.395,1.1,1.1,0,0,1-.126.618.447.447,0,0,1-.388.172H78.378a3.056,3.056,0,0,1-.77-.112,2.26,2.26,0,0,1-.782-.375,9.208,9.208,0,0,1-1.164.355,5.2,5.2,0,0,1-1.164.131h-.961a.911.911,0,0,1-.2-.02.329.329,0,0,1-.165-.092.473.473,0,0,1-.111-.216,1.531,1.531,0,0,1-.04-.4,1.091,1.091,0,0,1,.126-.617.446.446,0,0,1,.387-.172Zm2.709-2.406a2.357,2.357,0,0,0-.776.111,2.077,2.077,0,0,0-.5.243c.08.114.172.237.276.368s.215.265.329.4.227.258.336.381a4.4,4.4,0,0,0,.309.315,1.678,1.678,0,0,0,.564-.585,1.3,1.3,0,0,0,.212-.625,1.016,1.016,0,0,0-.026-.2.453.453,0,0,0-.107-.2.633.633,0,0,0-.23-.145A1.084,1.084,0,0,0,77.155,123.05Zm-.895-3.59a.946.946,0,1,1,.276.656A.9.9,0,0,1,76.26,119.46Z" transform="translate(-30.311 -113.844)" fill="#1a1818"></path><path id="Path_314" data-name="Path 314" d="M80.427,125.1q.158,0,.388-.262a2.494,2.494,0,0,0,.414-.764,6.206,6.206,0,0,1,.625-1.242,3.62,3.62,0,0,1,.7-.789,2.327,2.327,0,0,1,2.42-.335,2.247,2.247,0,0,1,.77.552,2.6,2.6,0,0,1,.506.856,3.125,3.125,0,0,1,.184,1.091,2.835,2.835,0,0,1-.577,1.875,2.173,2.173,0,0,1-1.763.69,3.766,3.766,0,0,1-1.065-.157,4.183,4.183,0,0,1-1.118-.539,1.359,1.359,0,0,1-.7.46,3.56,3.56,0,0,1-.775.08h-.7a.909.909,0,0,1-.2-.02.329.329,0,0,1-.165-.092.473.473,0,0,1-.111-.216,1.529,1.529,0,0,1-.04-.4,1.1,1.1,0,0,1,.126-.617.446.446,0,0,1,.387-.172Zm4.339-.934a1.746,1.746,0,0,0-.046-.394,1.075,1.075,0,0,0-.145-.35.812.812,0,0,0-.262-.25.776.776,0,0,0-.4-.1,1.041,1.041,0,0,0-.71.368,2.7,2.7,0,0,0-.579,1.3,4.912,4.912,0,0,0,.625.323,1.63,1.63,0,0,0,.638.124.792.792,0,0,0,.651-.283A1.139,1.139,0,0,0,84.767,124.161Z" transform="translate(-29.559 -113.482)" fill="#1a1818"></path></g><g id="Group_152" data-name="Group 152" transform="translate(30.191 22.101)"><path id="Path_315" data-name="Path 315" d="M37.552,142.73H35.843a.4.4,0,0,1-.456-.455V133.1a.4.4,0,0,1,.456-.455h2.45a3.833,3.833,0,0,1,2.757.783,4.225,4.225,0,0,1,.777,2.95,4.142,4.142,0,0,1-.784,2.92,3.837,3.837,0,0,1-2.75.785H38.01v2.194A.4.4,0,0,1,37.552,142.73Zm.457-4.986h.284c.38,0,.62-.086.72-.257a4.214,4.214,0,0,0,0-2.222q-.15-.257-.72-.257H38.01Z" transform="translate(-35.387 -132.643)" fill="#1a1818"></path><path id="Path_316" data-name="Path 316" d="M44.514,133.1v7.21h1.823a.4.4,0,0,1,.456.455v1.511a.4.4,0,0,1-.456.455H42.349a.4.4,0,0,1-.456-.455V133.1a.4.4,0,0,1,.456-.455h1.709A.4.4,0,0,1,44.514,133.1Z" transform="translate(-34.598 -132.643)" fill="#1a1818"></path><path id="Path_317" data-name="Path 317" d="M48.941,132.643h2.707a.588.588,0,0,1,.656.5l1.525,9.092a.43.43,0,0,1-.064.361.4.4,0,0,1-.333.133H51.685a.452.452,0,0,1-.481-.442l-.185-1.239H49.571l-.185,1.239a.454.454,0,0,1-.482.442H47.157a.4.4,0,0,1-.334-.136.434.434,0,0,1-.063-.363l1.525-9.092A.587.587,0,0,1,48.941,132.643Zm.8,6.125,1.112,0-.521-3.592-.07,0Z" transform="translate(-34.01 -132.643)" fill="#1a1818"></path><path id="Path_318" data-name="Path 318" d="M60.406,133.1v9.176a.4.4,0,0,1-.457.455H58.482a.6.6,0,0,1-.612-.385l-1.625-4.033v3.962a.4.4,0,0,1-.456.455H54.165a.4.4,0,0,1-.456-.455V133.1a.4.4,0,0,1,.456-.455h1.468a.6.6,0,0,1,.612.383l1.625,4.032V133.1a.4.4,0,0,1,.455-.455h1.624A.4.4,0,0,1,60.406,133.1Z" transform="translate(-33.166 -132.643)" fill="#1a1818"></path><path id="Path_319" data-name="Path 319" d="M60.343,134.579V133.1a.4.4,0,0,1,.456-.455h4.615a.4.4,0,0,1,.456.455v1.481a.4.4,0,0,1-.456.456h-1v7.239a.4.4,0,0,1-.457.455H62.252a.4.4,0,0,1-.456-.455v-7.239h-1A.4.4,0,0,1,60.343,134.579Z" transform="translate(-32.361 -132.643)" fill="#1a1818"></path><path id="Path_320" data-name="Path 320" d="M72.824,139.125H70.716v3.12a.429.429,0,0,1-.485.484H68.577a.428.428,0,0,1-.484-.484v-9.119a.427.427,0,0,1,.484-.483h4.331a.4.4,0,0,1,.456.455v1.481a.4.4,0,0,1-.456.456H70.716v1.7h2.108a.4.4,0,0,1,.456.455v1.483A.4.4,0,0,1,72.824,139.125Z" transform="translate(-31.422 -132.643)" fill="#1a1818"></path><path id="Path_321" data-name="Path 321" d="M78.3,138.755H76.075v1.581H78.5a.4.4,0,0,1,.456.455v1.483a.4.4,0,0,1-.456.455H73.937a.4.4,0,0,1-.457-.455V133.1a.4.4,0,0,1,.457-.455h4.5a.4.4,0,0,1,.457.455v1.481a.4.4,0,0,1-.457.456H76.075v1.411H78.3a.4.4,0,0,1,.457.456v1.4A.4.4,0,0,1,78.3,138.755Z" transform="translate(-30.769 -132.643)" fill="#1a1818"></path><path id="Path_322" data-name="Path 322" d="M82.054,142.73H79.6a.4.4,0,0,1-.457-.455V133.1a.4.4,0,0,1,.457-.455H82a5.2,5.2,0,0,1,1.689.234,2.645,2.645,0,0,1,1.16.805,3.5,3.5,0,0,1,.7,1.545,11.876,11.876,0,0,1,.213,2.459,9.459,9.459,0,0,1-.392,3.055,2.721,2.721,0,0,1-1.175,1.546A4.361,4.361,0,0,1,82.054,142.73ZM82,135.008H81.77v5.356h.285a.812.812,0,0,0,.826-.512,6.861,6.861,0,0,0,.214-2.165,9.559,9.559,0,0,0-.114-1.71,1.41,1.41,0,0,0-.334-.777A.967.967,0,0,0,82,135.008Z" transform="translate(-30.081 -132.643)" fill="#1a1818"></path></g></svg> 